<?xml version="1.0" standalone="no"?>
<!DOCTYPE svg PUBLIC "-//W3C//DTD SVG 1.1//EN" "http://www.w3.org/Graphics/SVG/1.1/DTD/svg11.dtd" >
<!--
2013-9-30: Created.
-->
<svg>
<metadata>
Created by iconfont
</metadata>
<defs>

<font id="iconfont" horiz-adv-x="1024" >
  <font-face
    font-family="iconfont"
    font-weight="500"
    font-stretch="normal"
    units-per-em="1024"
    ascent="896"
    descent="-128"
  />
    <missing-glyph />
    
    <glyph glyph-name="jingdian" unicode="&#58985;" d="M864.711111-86.844444l-49.698133 0c2.548622 7.145244 4.187022 14.722844 4.187022 22.755556l0 182.044444 0 45.511111c0 12.583822-10.194489 22.755556-22.755556 22.755556s-22.755556-10.171733-22.755556-22.755556l0-45.511111 0-182.044444c0-19.751822-12.652089-22.482489-30.242133-22.755556L728.177778-86.844444 295.822222-86.844444l-15.268978 0C262.9632-86.571378 250.311111-83.840711 250.311111-64.088889l0 182.044444 0 45.511111c0 12.583822-10.194489 22.755556-22.755556 22.755556s-22.755556-10.171733-22.755556-22.755556l0-45.511111 0-182.044444c0-8.032711 1.6384-15.610311 4.187022-22.755556L159.288889-86.844444c-12.561067 0-22.755556-10.171733-22.755556-22.755556s10.194489-22.755556 22.755556-22.755556l113.777778 0 477.866667 0 113.777778 0c12.561067 0 22.755556 10.171733 22.755556 22.755556S877.272178-86.844444 864.711111-86.844444zM523.377778 231.733333c25.122133 0 45.511111 20.388978 45.511111 45.511111l0 22.755556c0 25.122133-20.388978 45.511111-45.511111 45.511111l-22.755556 0c-25.122133 0-45.511111-20.388978-45.511111-45.511111l0-22.755556c0-25.122133 20.388978-45.511111 45.511111-45.511111L523.377778 231.733333zM484.215467 623.902578l25.964089 0 0-8.897422-25.964089 0 0 8.897422ZM112.480711 252.349867m-20.616533 0a0.906 0.906 0 1 0 41.233067 0 0.906 0.906 0 1 0-41.233067 0ZM911.746844 252.349867m-20.616533 0a0.906 0.906 0 1 0 41.233067 0 0.906 0.906 0 1 0-41.233067 0ZM32.472178 254.488889A1.016 1 0 1 1 32.472178 231.733333ZM950.294756 254.488889A1.016 1 0 1 1 950.294756 231.733333ZM512 732.355556C493.135644 732.355556 477.866667 717.063822 477.866667 698.222222l0-45.306311L102.1952 277.244444 68.266667 277.244444 55.591822 277.244444l0-45.511111 56.251733 0 18.500267 9.580089 115.894044 113.709511 0.022756-0.022756L508.836978 613.002667c1.479111 0.750933 2.366578 1.774933 2.707911 3.049244 0.182044 0.022756 0.250311 0.045511 0.455111 0.045511 0 0 0 0 0 0L512 732.355556C512.022756 732.355556 512 732.355556 512 732.355556zM969.022578 277.244444l-13.243733 0-33.928533 0L546.178844 652.915911 546.178844 698.222222c0 18.8416-15.268978 34.133333-34.133333 34.133333 0 0 0 0-0.022756 0l0-116.258133c0 0 0 0 0 0 0.227556 0 0.295822-0.022756 0.477867-0.045511 0.341333-1.274311 1.206044-2.298311 2.707911-3.049244L777.784889 355.000178l0.022756 0.022756 115.894044-113.709511 18.500267-9.580089 56.820622 0L969.022578 277.244444z"  horiz-adv-x="1024" />

    
    <glyph glyph-name="youji" unicode="&#59105;" d="M800 44l-576 0C206.336 44 192 29.664 192 12S206.336-20 224-20l576 0c17.664 0 32 14.336 32 32S817.664 44 800 44zM863.488 812 160.512 812C107.2 812 64 769.312 64 716.32l0-832.64C64-168.992 107.392-212 160.512-212l703.04 0C916.8-212 960-169.312 960-116.32L960 716.32C960 768.992 916.608 812 863.488 812zM896-116.32C896-133.792 881.6-148 863.488-148L160.512-148C142.592-148 128-133.536 128-116.32L128 716.32C128 733.792 142.4 748 160.512 748l703.04 0C881.408 748 896 733.536 896 716.32L896-116.32zM277.248 364l85.504 0C410.24 364 448 402.144 448 449.248L448 534.752C448 582.24 409.856 620 362.752 620L277.248 620C229.76 620 192 581.856 192 534.752l0-85.504C192 401.76 230.144 364 277.248 364zM800 236l-576 0C206.336 236 192 221.664 192 204S206.336 172 224 172l576 0c17.664 0 32 14.336 32 32S817.664 236 800 236zM800 556l-192 0C590.336 556 576 541.664 576 524S590.336 492 608 492l192 0C817.664 492 832 506.336 832 524S817.664 556 800 556z"  horiz-adv-x="1024" />

    
    <glyph glyph-name="shijian" unicode="&#58969;" d="M512 896C229.216 896 0 666.784 0 384c0-282.768 229.216-512 512-512s512 229.232 512 512C1024 666.784 794.784 896 512 896zM512-64C264.576-64 64 136.592 64 384 64 631.424 264.576 832 512 832s448-200.576 448-448C960 136.592 759.424-64 512-64zM784.416 384 544 384l0.016 288.464C544.016 689.888 529.664 704 512 704c-17.68 0-32-14.096-32.016-31.536L480 352.16c0-0.064-0.016-0.096-0.016-0.16S480 351.904 480 351.84l0-0.288c0-7.712 2.928-14.704 7.6-20.192C493.376 324.464 501.904 320 511.552 320l272.896 0c17.44 0 31.552 14.32 31.552 32C816.016 369.68 801.872 384 784.416 384z"  horiz-adv-x="1024" />

    
    <glyph glyph-name="jingdian1" unicode="&#58945;" d="M74.24 263.68c5.12-5.12 12.8-5.12 20.48-5.12 12.8 0 25.6 5.12 33.28 17.92L337.92 614.4l222.72-337.92c7.68-10.24 20.48-17.92 33.28-17.92h2.56c10.24 0 23.04 5.12 30.72 12.8l122.88 151.04 153.6-153.6c7.68-7.68 17.92-10.24 28.16-10.24s20.48 2.56 28.16 10.24c15.36 15.36 15.36 38.4 0 53.76l-43.52 43.52c17.92 25.6 30.72 56.32 38.4 87.04 20.48 76.8 7.68 156.16-30.72 225.28C883.2 747.52 819.2 796.16 742.4 814.08c-76.8 20.48-156.16 7.68-225.28-30.72-51.2-30.72-89.6-74.24-115.2-125.44l-30.72 46.08-2.56 2.56-2.56 2.56-2.56 2.56L358.4 716.8h-2.56c-2.56 0-2.56 2.56-5.12 2.56H343.04 335.36 327.68h-2.56-2.56c-2.56 0-2.56-2.56-5.12-2.56h-2.56c-2.56 0-2.56-2.56-2.56-2.56s-2.56 0-2.56-2.56l-2.56-2.56-2.56-2.56-243.2-389.12c-10.24-17.92-5.12-40.96 12.8-53.76z m378.88 320c15.36 56.32 51.2 104.96 102.4 133.12s110.08 40.96 166.4 25.6c56.32-15.36 104.96-51.2 133.12-102.4 30.72-51.2 38.4-110.08 23.04-166.4-5.12-17.92-12.8-35.84-20.48-51.2l-84.48 84.48s0 2.56-2.56 2.56c-2.56 2.56-5.12 5.12-10.24 5.12h-2.56c-5.12 2.56-7.68 2.56-12.8 2.56H742.4c-5.12 0-7.68 0-12.8-2.56h-2.56c-5.12-2.56-7.68-5.12-10.24-7.68 0 0-2.56 0-2.56-2.56l-120.32-143.36-145.92 220.16c5.12 0 5.12 2.56 5.12 2.56zM934.4 171.52h-844.8c-20.48 0-38.4-17.92-38.4-38.4s17.92-38.4 38.4-38.4h844.8c20.48 0 38.4 17.92 38.4 38.4s-17.92 38.4-38.4 38.4zM857.6 17.92h-691.2c-20.48 0-38.4-17.92-38.4-38.4s17.92-38.4 38.4-38.4h691.2c20.48 0 38.4 17.92 38.4 38.4s-17.92 38.4-38.4 38.4z"  horiz-adv-x="1024" />

    
    <glyph glyph-name="youji1" unicode="&#58936;" d="M792.00256 134.4768H232.23296c-17.16736 0-31.09888-13.93152-31.09888-31.09888s13.93152-31.09888 31.09888-31.09888h559.7696c17.16736 0 31.09888 13.93152 31.09888 31.09888s-13.93664 31.09888-31.09888 31.09888zM853.69856 880.83456H170.53696c-51.80928 0-93.79328-41.48224-93.79328-92.98432v-809.17504c0-51.18976 42.16832-92.98432 93.79328-92.98432h683.22816c51.74784 0 93.73184 41.48736 93.73184 92.98432V787.85024c-0.00512 51.18976-42.17344 92.98432-93.7984 92.98432z m31.59552-902.15936c0-16.97792-13.99296-30.78656-31.59552-30.78656H170.53696c-17.41312 0-31.59552 14.0544-31.59552 30.78656V787.85024c0 16.97792 13.99296 30.78656 31.59552 30.78656h683.22816c17.35168 0 31.53408-14.0544 31.53408-30.78656v-809.17504h-0.00512zM283.9808 445.46048h83.0976c46.15168 0 82.84672 37.0688 82.84672 82.84672v83.0976c0 46.15168-37.0688 82.84672-82.84672 82.84672h-83.0976a82.58048 82.58048 0 0 1-82.84672-82.84672v-83.0976c0-46.15168 37.0688-82.84672 82.84672-82.84672zM792.00256 321.07008H232.23296a31.10912 31.10912 0 0 1-31.09888-31.09888 31.10912 31.10912 0 0 1 31.09888-31.09888h559.7696a31.10912 31.10912 0 0 1 31.09888 31.09888 31.11424 31.11424 0 0 1-31.09888 31.09888zM792.00256 632.04864h-186.58816a31.10912 31.10912 0 0 1-31.09888-31.09888 31.10912 31.10912 0 0 1 31.09888-31.09888h186.58816a31.10912 31.10912 0 0 1 31.09888 31.09888 31.11424 31.11424 0 0 1-31.09888 31.09888z"  horiz-adv-x="1024" />

    
    <glyph glyph-name="youji2" unicode="&#59128;" d="M752.152381 558.32381v75.580952c0 3.657143-2.438095 6.095238-6.095238 6.095238H594.895238l-3.657143 14.628571c-7.314286 34.133333-37.790476 57.295238-71.923809 57.295239-35.352381 0-64.609524-23.161905-71.92381-57.295239l-3.657143-14.628571H293.790476c-3.657143 0-6.095238-2.438095-6.095238-6.095238v-75.580952h464.457143zM786.285714 852.114286H258.438095c-107.27619 0-195.047619-87.771429-195.047619-195.047619v-540.038096c0-107.27619 87.771429-195.047619 195.047619-195.047619h527.847619c107.27619 0 195.047619 87.771429 195.047619 195.047619V657.066667c0 107.27619-87.771429 195.047619-195.047619 195.047619z m2.438096-783.847619c0-23.161905-19.504762-42.666667-42.666667-42.666667H293.790476c-23.161905 0-42.666667 19.504762-42.666666 42.666667V633.904762c0 23.161905 19.504762 42.666667 42.666666 42.666667h121.904762c15.847619 42.666667 57.295238 71.92381 103.619048 71.923809s87.771429-29.257143 103.619047-71.923809h121.904762c23.161905 0 42.666667-19.504762 42.666667-42.666667V444.952381h-36.571429v76.8h-463.238095v-452.266667c0-3.657143 2.438095-6.095238 6.095238-6.095238h452.266667c3.657143 0 6.095238 2.438095 6.095238 6.095238v207.238096h36.571429v-208.457143zM592.457143 230.4v-36.571429H387.657143v36.571429h204.8z m-204.8 70.704762v36.571428h163.352381v-36.571428H387.657143z m0 107.27619v36.571429h285.257143v-36.571429H387.657143z m503.466667 28.038096L674.133333 219.428571l-70.704762-24.380952 24.380953 70.704762L844.8 481.52381c9.752381 9.752381 25.6 10.971429 35.352381 1.219047l10.971429-10.971428c9.752381-9.752381 9.752381-25.6 0-35.352381z"  horiz-adv-x="1048" />

    
    <glyph glyph-name="liuyan" unicode="&#58911;" d="M650.619259 687.786667L187.354074 230.494815l166.115556-172.373334 457.007407 464.782223-159.857778 164.882963zM61.345185-71.774815l252.207408 107.52-154.832593 152.367408-97.374815-259.887408z m880.82963 791.893334s-42.287407 46.838519-91.022222 82.488888c-48.734815 35.555556-86.186667 0-86.186667 0l-82.394074-82.488888 167.348148-166.77926s70.542222 71.205926 92.254815 95.573334c21.712593 24.367407 0 71.205926 0 71.205926zM911.17037 14.980741H487.822222c-16.782222 0-30.435556-13.653333-30.435555-30.435556 0-16.782222 13.653333-30.435556 30.435555-30.435555H911.17037c16.782222 0 30.435556 13.653333 30.435556 30.435555 0 16.782222-13.653333 30.435556-30.435556 30.435556z m0 145.161481H592.877037c-16.782222 0-30.435556-13.653333-30.435556-30.435555 0-16.877037 13.653333-30.435556 30.435556-30.435556H911.17037c16.782222 0 30.435556 13.653333 30.435556 30.435556 0 16.877037-13.653333 30.435556-30.435556 30.435555z m0 145.256297H684.562963c-16.782222 0-30.435556-13.653333-30.435556-30.435556 0-16.877037 13.653333-30.435556 30.435556-30.435556h226.607407c16.782222 0 30.435556 13.653333 30.435556 30.435556 0 16.782222-13.653333 30.435556-30.435556 30.435556z"  horiz-adv-x="1024" />

    
    <glyph glyph-name="jingdian2" unicode="&#58930;" d="M512 896C228.693333 896 0 667.306667 0 384s228.693333-512 512-512 512 228.693333 512 512S795.306667 896 512 896z m0-989.866667C249.173333-93.866667 34.133333 121.173333 34.133333 384S249.173333 861.866667 512 861.866667s477.866667-215.04 477.866667-477.866667-215.04-477.866667-477.866667-477.866667zM723.626667 233.813333c0 13.653333-13.653333 27.306667-27.306667 27.306667H211.626667c-13.653333 0-27.306667-10.24-27.306667-27.306667 0-13.653333 13.653333-27.306667 27.306667-27.306666h484.693333c13.653333 0 27.306667 13.653333 27.306667 27.306666zM631.466667 148.48H276.48c-13.653333 0-27.306667-10.24-27.306667-27.306667 0-13.653333 13.653333-27.306667 27.306667-27.306666h354.986667c13.653333 0 27.306667 10.24 27.306666 27.306666s-10.24 27.306667-27.306666 27.306667zM853.333333 482.986667c0 105.813333-88.746667 191.146667-201.386666 191.146666-78.506667 0-150.186667-44.373333-180.906667-109.226666-6.826667 6.826667-10.24 13.653333-17.066667 20.48l-37.546666 47.786666c-6.826667 6.826667-13.653333 10.24-23.893334 10.24-10.24 0-17.066667-6.826667-23.893333-13.653333l-194.56-300.373333c-6.826667-13.653333-3.413333-27.306667 10.24-37.546667 3.413333-3.413333 6.826667-3.413333 13.653333-3.413333H819.2c6.826667 0 13.653333 0 17.066667 6.826666 13.653333 10.24 13.653333 27.306667 6.826666 37.546667l-27.306666 37.546667c23.893333 34.133333 37.546667 75.093333 37.546666 112.64zM778.24 418.133333l-44.373333 58.026667c-3.413333 6.826667-13.653333 10.24-20.48 10.24-6.826667 0-17.066667-3.413333-23.893334-10.24-27.306667-30.72-61.44-68.266667-81.92-88.746667-17.066667 20.48-51.2 61.44-98.986666 126.293334 3.413333 3.413333 6.826667 6.826667 10.24 13.653333 20.48 54.613333 75.093333 92.16 136.533333 92.16 78.506667 0 143.36-61.44 143.36-136.533333 0-20.48-6.826667-44.373333-20.48-64.853334zM720.213333 148.48c-13.653333 0-27.306667-10.24-27.306666-27.306667s13.653333-27.306667 27.306666-27.306666 27.306667 10.24 27.306667 27.306666-13.653333 27.306667-27.306667 27.306667z"  horiz-adv-x="1024" />

    
    <glyph glyph-name="sousuo" unicode="&#59058;" d="M598.445333 262.871111c-48.28-40.326222-110.483556-64.600889-178.364444-64.600889-153.564444 0-278.053333 124.227556-278.053333 277.466667 0 153.239111 124.488889 277.467556 278.053333 277.467555 153.565333 0 278.052444-124.228444 278.052444-277.467555 0-67.743111-24.322667-129.809778-64.731555-177.989333l-34.956445-34.876445z m80.696889 18.003556c41.019556 54.213333 65.332444 121.705778 65.332445 194.863111 0 178.786667-145.237333 323.708444-324.393778 323.708444S95.687111 654.524444 95.687111 475.737778c0-178.787556 145.237333-323.720889 324.393778-323.720889 72.421333 0 139.295111 23.680889 193.272889 63.709333l247.464-246.945778 65.536 65.398223-247.211556 246.696z"  horiz-adv-x="1024" />

    
    <glyph glyph-name="youke" unicode="&#58912;" d="M899.2-29.6c-12.5 163.9-118 301.2-270.1 352.5 86 46.4 141.1 139.3 141.2 239.2C770.2 709.2 655 829.1 512 832.6c-143-3.5-258.2-123.3-258.3-270.5 0.1-99.9 55.2-192.9 141.2-239.2-152.1-51.3-257.6-188.6-270.1-352.5-1.1-3-1.8-6.2-1.7-9.4 0-13.6 10.3-24.4 23.3-25.5h4.3c11.7 1.1 21.2 10.1 22.8 21.9h1.1l0.2 3.4c11 183.1 158.6 326.8 337.1 330.2C690.4 287.7 838 143.9 849-39.2l0.2-3.4h1.1c1.6-11.8 11.1-20.8 22.8-21.9h4.3c13 1.1 23.3 12 23.3 25.5 0.3 3.2-0.3 6.4-1.5 9.4zM304.3 562c0.1 118.5 92.7 215.1 207.7 218.5 115-3.5 207.6-100 207.7-218.6 0-118.6-92.7-215.2-207.7-218.6-115 3.5-207.7 100.1-207.7 218.7z"  horiz-adv-x="1024" />

    
    <glyph glyph-name="shijian1" unicode="&#58880;" d="M515.387964-127.99199999999996c-271.474084 0-491.51672 220.061636-491.51672 491.51672 0 271.494084 220.041636 491.53472 491.51672 491.53472 271.493084 0 491.53472-220.040636 491.534719-491.53472 0-271.455084-220.041636-491.51672-491.534719-491.51672z m0 921.6131c-237.520449 0-430.07638-192.555932-430.07638-430.09638 0-237.520449 192.555932-430.07538 430.07538-430.07538 237.540448 0 430.09638 192.554932 430.096379 430.07538 0 237.539448-192.554932 430.09538-430.095379 430.09538z m261.56519-491.53672h-261.997186c-9.259901 0-17.439813 4.285954-22.983753 10.911883-4.482952 5.269943-7.293922 11.973871-7.293922 19.385791v0.274998c0 0.059999-0.02 0.097999-0.019999 0.157998s0.02 0.078999 0.019999 0.157998l-0.019999 307.492697c0.02 16.73082 13.762852 30.276675 30.72967 30.276675 16.965818 0 30.74967-13.565854 30.749669-30.276675l-0.019999-276.940025h230.79552c16.75082 0 30.336674-13.742852 30.317675-30.70967 0-16.986818-13.546854-30.72967-30.277675-30.72967z"  horiz-adv-x="1024" />

    
    <glyph glyph-name="liuyan1" unicode="&#58881;" d="M505.6-25.6h-6.4-6.4s-6.4 0-6.4 6.4l-89.6 115.2H102.4c-57.6 0-102.4 44.8-102.4 102.4V691.2c0 57.6 44.8 102.4 102.4 102.4h819.2c57.6 0 102.4-44.8 102.4-102.4v-486.4c0-57.6-44.8-102.4-102.4-102.4H620.8l-96-121.6c-6.4-6.4-12.8-6.4-19.2-6.4 6.4 0 6.4 0 0 0z m-96 179.2c6.4 0 19.2-6.4 19.2-12.8L512 38.4l83.2 102.4c6.4 6.4 12.8 6.4 19.2 6.4h307.2c25.6 0 51.2 25.6 51.2 51.2V691.2c0 25.6-25.6 51.2-51.2 51.2H102.4c-25.6 0-51.2-25.6-51.2-51.2v-486.4c0-25.6 25.6-51.2 51.2-51.2h307.2z m332.8 256c-25.6 0-51.2 25.6-51.2 51.2s25.6 51.2 51.2 51.2 51.2-25.6 51.2-51.2-25.6-51.2-51.2-51.2zM512 409.6c-25.6 0-51.2 25.6-51.2 51.2S486.4 512 512 512s51.2-25.6 51.2-51.2-19.2-51.2-51.2-51.2z m-230.4 0c-25.6 0-51.2 25.6-51.2 51.2S256 512 281.6 512s51.2-25.6 51.2-51.2-25.6-51.2-51.2-51.2z m0 0"  horiz-adv-x="1024" />

    
    <glyph glyph-name="bianji" unicode="&#58915;" d="M928.007314-128H95.963429C41.5744-128 0-86.396343 0-32.007314V800.036571C0 854.4256 41.603657 896 95.992686 896H512c19.192686 0 32.007314-12.814629 32.007314-32.007314 0-19.192686-12.814629-31.978057-32.007314-31.978057H95.992686c-19.192686 0-32.007314-12.814629-32.007315-32.007315V-32.036571c0-19.192686 12.814629-31.978057 32.007315-31.978058H928.036571c19.192686 0 31.978057 12.785371 31.978058 31.978058V384c0 19.192686 12.814629 32.007314 32.007314 32.007314 19.221943 0 32.007314-12.814629 32.007314-32.007314v-416.007314C1024-86.4256 982.396343-128 928.007314-128zM528.471771 398.628571c-9.362286 0-15.5648 3.101257-21.767314 9.333029a30.047086 30.047086 0 0 0 0 43.505371L941.904457 886.666971a30.047086 30.047086 0 0 0 43.505372 0 30.047086 30.047086 0 0 0 0-43.505371L550.209829 407.9616c-6.202514-6.231771-12.434286-9.333029-21.767315-9.333029z"  horiz-adv-x="1024" />

    
    <glyph glyph-name="zuozhe" unicode="&#58978;" d="M887.466667-128H125.155556C56.888889-128 0-71.111111 0-2.844444V765.155556C0 833.422222 56.888889 896 130.844444 896h512v-62.577778h-512c-34.133333 0-62.577778-34.133333-62.577777-68.266666v-762.311112c0-34.133333 28.444444-62.577778 62.577777-62.577777h762.311112c34.133333 0 68.266667 28.444444 68.266666 62.577777v512H1024v-512c0-73.955556-62.577778-130.844444-136.533333-130.844444z m-409.6 278.755556c-11.377778-11.377778-22.755556-11.377778-34.133334-17.066667l-278.755555-136.533333c-34.133333-17.066667-56.888889 11.377778-45.511111 45.511111l136.533333 278.755555c0 11.377778 5.688889 22.755556 17.066667 34.133334L768 850.488889c22.755556 22.755556 62.577778 22.755556 91.022222 0l113.777778-113.777778c22.755556-22.755556 22.755556-62.577778 0-91.022222l-494.933333-494.933333z m-295.822223-73.955556c-5.688889-17.066667 5.688889-28.444444 22.755556-22.755556l170.666667 102.4L284.444444 247.466667l-102.4-170.666667z m136.533334 227.555556l358.4 358.4 113.777778-113.777778-358.4-358.4c-39.822222 45.511111-102.4 102.4-113.777778 113.777778z m585.955555 403.911111l-68.266666 68.266666c-11.377778 11.377778-34.133333 11.377778-45.511111 0l-68.266667-68.266666 108.088889-113.777778L904.533333 668.444444c11.377778 11.377778 11.377778 28.444444 0 39.822223z"  horiz-adv-x="1024" />

    
    <glyph glyph-name="zuozhe1" unicode="&#58941;" d="M652.8 361.6C723.2 406.4 768 486.4 768 576c0 140.8-115.2 256-256 256S256 716.8 256 576c0-89.6 44.8-169.6 115.2-214.4C192 304 64 134.4 64-64h64c0 211.2 172.8 384 384 384s384-172.8 384-384h64c0 198.4-128 368-307.2 425.6zM512 384c-105.6 0-192 86.4-192 192s86.4 192 192 192 192-86.4 192-192-86.4-192-192-192z"  horiz-adv-x="1024" />

    
    <glyph glyph-name="een" unicode="&#59848;" d="M450.67137048 658.96282676L450.67137048 658.96282676c16.07805352 15.93877002 38.42158158 25.25921197 61.25608633 25.25921198l0 0c22.98307446 0 45.25347746-9.31928157 61.40465603-25.25921198l419.6404603-419.78670931 0 0c33.87510834-33.86698358 33.87510834-88.86688158 0-122.73270479l0 0c-33.92966204-33.79385964-88.72063369-33.79385964-122.58645691 0L511.92745569 474.68850315 153.75665061 116.44341266000004l0 0c-34.01091076-33.7985022-88.79723985-33.7985022-122.73270481 0.14508752l0 0c-33.87278761 33.72189607-33.87278761 88.72179406 0 122.58761727L450.67137048 658.96282676 450.67137048 658.96282676zM450.67137048 658.96282676"  horiz-adv-x="1024" />

    
    <glyph glyph-name="liuyan2" unicode="&#58952;" d="M839.613614-128h-655.559157A123.726418 123.726418 0 0 0 60.659968-4.439546V772.439546A123.726418 123.726418 0 0 0 184.220421 896h474.575041a33.192869 33.192869 0 0 0 0-66.385737H184.220421A57.257699 57.257699 0 0 1 127.045705 772.439546v-776.879092a57.257699 57.257699 0 0 1 57.174716-57.174717h655.559158a57.257699 57.257699 0 0 1 57.174716 57.174717V386.821394a33.192869 33.192869 0 0 0 66.385737 0v-391.26094a123.726418 123.726418 0 0 0-123.726418-123.560454zM709.248622 498.764344a33.192869 33.192869 0 0 0-25.724473 54.104376l220.649595 272.928363a33.192869 33.192869 0 0 0 51.614911-41.491086L735.13906 511.128687a33.192869 33.192869 0 0 0-25.890438-12.364343zM566.27034 529.135818H220.981524a33.192869 33.192869 0 0 0 0 66.385738h345.288816a33.192869 33.192869 0 0 0 0-66.385738zM814.22107 300.6859H220.981524a33.192869 33.192869 0 0 0 0 66.385737h593.239546a33.192869 33.192869 0 0 0 0-66.385737zM814.22107 71.82107H220.981524a33.192869 33.192869 0 0 0 0 66.385737h593.239546a33.192869 33.192869 0 0 0 0-66.385737z"  horiz-adv-x="1024" />

    
    <glyph glyph-name="sousuo1" unicode="&#58895;" d="M1003.96323-22.836888l-279.851394 280.216736a396.724059 396.724059 0 0 1 76.721661 236.375787A404.067418 404.067418 0 0 1 398.958127 895.996347 397.235537 397.235537 0 0 1 0.005486 496.678364a404.140487 404.140487 0 0 1 401.875371-402.606053 395.956843 395.956843 0 0 1 236.741127 77.452344 0.365341 0.365341 0 0 0 0.365341 0.365342l279.851395-279.851395a60.244771 60.244771 0 1 1 85.12451 85.12451z m-602.447715 197.284273a323.217401 323.217401 0 0 0-321.500296 321.865638 318.102623 318.102623 0 0 0 319.308249 319.673591 323.801947 323.801947 0 0 0 321.500296-322.230979 317.846884 317.846884 0 0 0-319.308249-319.30825z"  horiz-adv-x="1025" />

    
    <glyph glyph-name="bianji1" unicode="&#58942;" d="M883.285333 431.786667c19.157333 0 34.688-15.488 34.688-34.56v-312.490667c0-31.744-10.069333-62.08-28.330666-85.461333-21.077333-27.050667-50.858667-41.941333-83.797334-41.941334H222.933333c-32.256 0-64.853333 14.122667-89.472 38.741334-25.173333 25.173333-39.594667 57.472-39.594666 88.661333v605.866667c0 32.64 15.573333 63.530667 42.752 84.736a140.672 140.672 0 0 0 86.314666 29.184h316.330667a34.645333 34.645333 0 0 0 0-69.333334H222.933333c-28.842667 0-59.733333-17.92-59.733333-44.544v-605.866666c0-13.397333 6.997333-27.818667 19.2-39.594667 11.946667-11.605333 27.093333-18.517333 40.533333-18.517333h582.912c26.794667 0 42.794667 29.525333 42.794667 58.069333v312.533333c0 19.029333 15.530667 34.56 34.645333 34.56z m-414.421333-77.568a42.24 42.24 0 0 0 0 59.733333l384.341333 384.341333a41.941333 41.941333 0 0 0 29.866667 12.373334 42.24 42.24 0 0 0 29.866667-72.106667l-384.384-384.341333a41.941333 41.941333 0 0 0-29.866667-12.373334 41.941333 41.941333 0 0 0-29.866667 12.373334z"  horiz-adv-x="1024" />

    
    <glyph glyph-name="bianji2" unicode="&#58918;" d="M948.907 384a27.307 27.307 0 1 0 54.613 0v-354.987a136.533 136.533 0 0 0-136.533-136.533H157.013A136.533 136.533 0 0 0 20.48 29.013V738.987A136.533 136.533 0 0 0 157.013 875.52H512a27.307 27.307 0 1 0 0-54.613H157.013a81.92 81.92 0 0 1-81.92-81.92v-709.974a81.92 81.92 0 0 1 81.92-81.92h709.974a81.92 81.92 0 0 1 81.92 81.92V384zM922.01 794.965a81.92 81.92 0 0 1-115.849 0L438.272 427.008a81.92 81.92 0 0 1-19.797-31.949l-34.543-103.697a27.307 27.307 0 0 1 34.543-34.475l103.628 34.475a81.92 81.92 0 0 1 32.018 19.797l367.957 367.958a81.92 81.92 0 0 1 0 115.848z m38.639 38.64a136.533 136.533 0 0 0 0-193.059L592.69 272.59a136.533 136.533 0 0 0-53.384-32.973l-103.63-34.611a81.92 81.92 0 0 0-103.56 103.629l34.475 103.628a136.533 136.533 0 0 0 33.041 53.385L767.59 833.604a136.533 136.533 0 0 0 193.059 0z"  horiz-adv-x="1024" />

    
    <glyph glyph-name="youkehuaxiang" unicode="&#58913;" d="M341.4016 358.8096v-2.4576 2.4576z m117.3504-2.4576v1.4336 1.2288-2.6624z m522.6496-332.1856c-18.2272 123.2896-84.5824 225.4848-177.152 271.7696 66.56 45.056 106.9056 128.8192 90.5216 220.9792-14.1312 79.4624-73.1136 145.6128-147.8656 166.0928-48.3328 13.312-94.4128 7.7824-134.3488-10.0352-29.4912 65.9456-87.6544 116.5312-156.2624 133.3248-154.0096 37.4784-290.816-83.7632-290.816-238.3872 0-89.4976 46.4896-167.1168 115.0976-209.92-118.3744-52.224-207.4624-179.4048-227.9424-334.6432-4.7104-36.2496 23.552-68.4032 58.5728-68.4032h640.8192v0.2048h171.008c35.2256 0 63.6928 32.5632 58.368 69.0176z m-870.4-7.7824c17.6128 129.6384 90.5216 240.2304 192.3072 285.0816l2.2528 1.024c10.24 4.5056 19.456 12.0832 26.0096 22.528 6.3488 10.0352 9.4208 21.504 9.6256 32.5632-0.2048 9.8304-2.6624 19.8656-7.5776 28.8768-5.12 9.6256-12.4928 17.2032-20.8896 22.3232l-2.2528 1.4336c-54.0672 33.792-86.4256 92.5696-86.4256 157.0816 0 101.376 78.848 183.9104 175.9232 183.9104 97.0752 0 175.9232-82.5344 175.9232-183.9104 0-64.7168-32.3584-123.4944-86.4256-157.0816l-2.2528-1.4336c-8.3968-5.3248-15.7696-12.6976-20.8896-22.3232-4.9152-9.216-7.3728-19.0464-7.5776-28.8768 0.2048-11.264 3.2768-22.528 9.6256-32.5632 6.5536-10.4448 15.7696-18.0224 26.0096-22.528l2.2528-1.024c101.7856-44.8512 174.6944-155.4432 192.3072-285.2864H111.0016z m637.3376 0c-18.6368 158.3104-108.544 288.5632-228.7616 341.6064 80.0768 49.9712 129.8432 147.2512 110.7968 255.7952 19.0464 9.6256 40.1408 15.36 62.6688 15.36 92.9792 0 165.888-90.9312 141.9264-192.1024-9.216-38.912-35.4304-71.0656-67.584-92.7744l11.0592 7.5776c-7.9872-5.3248-14.7456-12.6976-19.6608-22.1184-4.9152-9.4208-7.168-19.456-7.168-29.2864v-7.168c0-11.264 2.8672-22.528 9.0112-32.5632 6.144-10.24 14.5408-17.8176 24.3712-22.528l-6.144 3.072c77.2096-38.7072 131.072-123.0848 145.2032-224.4608h-175.7184z"  horiz-adv-x="1024" />

    


  </font>
</defs>
</svg>
